<?xml version="1.0" encoding="UTF-8"?>
<svg id="Layer_2" data-name="Layer 2" xmlns="http://www.w3.org/2000/svg" viewBox="0 0 113.21 101.4">
  <defs>
    <style>
      .cls-1 {
        fill: none;
      }

      .cls-1, .cls-2 {
        stroke: #231f20;
        stroke-miterlimit: 10;
        stroke-width: 3px;
      }

      .cls-3, .cls-4 {
        fill: #231f20;
      }

      .cls-4 {
        font-family: ArialRoundedMTBold, 'Arial Rounded MT Bold';
        font-size: 26px;
        letter-spacing: .08em;
      }

      .cls-2 {
        fill: #fff;
      }
    </style>
  </defs>
  <g id="Layer_1-2" data-name="Layer 1">
    <g>
      <rect class="cls-2" x="1.5" y="1.5" width="110.21" height="98.4"/>
      <text class="cls-4" transform="translate(7.65 62.86) scale(.83 1)"><tspan x="0" y="0">KYR17N</tspan></text>
      <line class="cls-1" x1="2.55" y1="68.15" x2="110.66" y2="68.15"/>
      <g>
        <polygon class="cls-3" points="65.69 92.35 59.08 92.35 59.08 94.39 94.67 94.39 94.67 92.35 90.47 92.35 69.65 67.19 55.74 67.19 65.69 92.35"/>
        <polygon class="cls-3" points="24.96 92.35 18.24 92.35 18.24 94.39 52.99 94.39 52.99 92.35 46.38 92.35 46.38 67.19 24.96 67.19 24.96 92.35"/>
      </g>
      <line class="cls-1" x1="2.76" y1="39.19" x2="110.45" y2="39.19"/>
      <g>
        <polygon class="cls-3" points="65.66 16.05 59.05 16.05 59.05 14.1 94.64 14.1 94.64 16.05 90.44 16.05 69.62 40.19 55.71 40.19 65.66 16.05"/>
        <polygon class="cls-3" points="46.35 16.13 51.28 16.13 51.28 14.1 18.21 14.1 18.21 16.13 24.93 16.13 24.93 40.19 46.35 40.19 46.35 16.13"/>
      </g>
    </g>
  </g>
</svg>